<?xml version="1.0" standalone="no"?>
<!DOCTYPE svg PUBLIC "-//W3C//DTD SVG 20010904//EN"
 "http://www.w3.org/TR/2001/REC-SVG-20010904/DTD/svg10.dtd">
<svg version="1.0" xmlns="http://www.w3.org/2000/svg"
 width="256.000000pt" height="256.000000pt" viewBox="0 0 256.000000 256.000000"
 preserveAspectRatio="xMidYMid meet">

<g transform="translate(0.000000,256.000000) scale(0.100000,-0.100000)"
fill="#000000" stroke="none">
<path d="M1541 2179 c-41 -29 -45 -30 -92 -20 -70 15 -262 13 -339 -4 -60 -13
-67 -13 -90 4 -14 9 -47 23 -74 31 -57 16 -63 11 -95 -74 -14 -37 -41 -73 -99
-131 -92 -93 -139 -159 -216 -305 -154 -292 -224 -592 -197 -838 16 -145 18
-158 34 -227 19 -80 56 -160 100 -217 20 -27 32 -48 26 -48 -26 0 -69 34 -108
84 -47 63 -81 78 -111 51 -24 -21 -25 -50 -5 -97 25 -62 122 -130 225 -158 48
-13 47 -15 -13 -25 -21 -3 -35 -10 -32 -14 15 -25 320 -71 612 -91 135 -10
197 -9 380 5 237 18 526 50 585 66 71 19 58 29 -54 45 l-47 6 68 67 c78 75
138 182 171 303 81 301 12 766 -166 1121 -53 104 -112 183 -206 273 -46 44
-98 103 -117 132 -31 49 -74 92 -91 92 -4 0 -26 -14 -49 -31z m-562 -50 l55
-32 101 17 c118 19 181 20 292 5 82 -12 83 -12 123 15 48 32 59 27 92 -38 11
-22 62 -81 114 -131 51 -49 114 -121 140 -159 179 -264 290 -716 255 -1041
-15 -132 -30 -183 -87 -295 -106 -207 -245 -279 -616 -319 -320 -35 -657 26
-817 148 -52 39 -145 170 -179 253 -74 178 -91 483 -38 691 14 53 31 111 39
129 8 18 20 49 27 68 25 69 148 308 189 368 22 34 77 97 121 141 44 44 80 84
80 90 0 17 41 121 47 121 4 0 31 -14 62 -31z m-618 -1729 c37 -49 124 -100
170 -100 15 0 37 -9 50 -21 l24 -20 -47 6 c-60 8 -151 45 -193 78 -33 26 -67
85 -58 100 8 13 19 5 54 -43z"/>
<path d="M1491 1687 c-12 -32 -36 -35 -53 -7 -7 11 -16 20 -20 20 -5 0 -8 -9
-8 -20 0 -28 -34 -26 -53 3 -20 30 -35 12 -16 -21 14 -26 19 -27 89 -27 72 0
75 1 84 28 14 39 -9 62 -23 24z"/>
<path d="M1689 1694 c-17 -21 0 -48 34 -52 21 -3 28 2 33 22 3 14 3 30 -1 35
-10 16 -51 13 -66 -5z"/>
<path d="M1062 1688 c-20 -20 -14 -48 13 -60 34 -15 61 8 51 46 -7 28 -42 36
-64 14z"/>
<path d="M1669 1203 c-6 -16 -13 -45 -16 -65 -5 -30 -1 -41 21 -63 21 -21 33
-26 54 -21 35 9 72 50 72 82 0 34 -22 30 -40 -9 -11 -23 -22 -32 -40 -32 -24
0 -25 1 -22 68 3 71 -10 89 -29 40z"/>
<path d="M1195 1161 c4 -28 4 -59 0 -70 -14 -45 -64 -12 -81 53 -7 29 -19 40
-33 31 -14 -8 14 -93 40 -121 30 -32 62 -30 94 4 23 24 25 32 20 72 -8 51 -21
80 -36 80 -7 0 -9 -17 -4 -49z"/>
<path d="M1051 684 c-12 -15 -21 -41 -21 -61 0 -43 25 -103 43 -103 24 0 27
12 11 42 -8 16 -14 46 -12 66 3 32 7 37 30 40 23 3 28 -2 43 -47 16 -49 28
-61 39 -42 10 16 -24 110 -44 121 -33 18 -67 11 -89 -16z"/>
<path d="M1781 659 c-24 -23 -31 -39 -31 -69 0 -21 3 -45 6 -54 12 -31 24 -15
24 32 0 35 5 54 18 65 40 36 72 13 72 -49 0 -23 3 -49 6 -58 20 -53 44 38 24
93 -27 77 -68 91 -119 40z"/>
</g>
</svg>
